<svg width="118" height="133" viewBox="0 0 118 133" fill="none" xmlns="http://www.w3.org/2000/svg">
<path d="M111.602 89.1115V44.2529C112.747 44.0032 113.817 43.4857 114.723 42.7428C115.629 41.9999 116.346 41.0527 116.816 39.979C117.285 38.9053 117.493 37.7356 117.423 36.5659C117.353 35.3961 117.006 34.2597 116.412 33.2498C115.818 32.2398 114.992 31.3852 114.004 30.7559C113.015 30.1266 111.892 29.7406 110.725 29.6296C109.559 29.5185 108.382 29.6856 107.293 30.1171C106.203 30.5486 105.232 31.2322 104.458 32.1119L65.8046 9.79473C66.1832 8.67932 66.2905 7.48973 66.1177 6.32457C65.9448 5.1594 65.4968 4.0522 64.8107 3.09474C64.1246 2.13727 63.2201 1.35712 62.1724 0.818923C61.1246 0.28073 59.9636 0 58.7857 0C57.6078 0 56.4468 0.28073 55.399 0.818923C54.3513 1.35712 53.4468 2.13727 52.7607 3.09474C52.0746 4.0522 51.6266 5.1594 51.4537 6.32457C51.2809 7.48973 51.3882 8.67932 51.7668 9.79473L13.0221 32.1639C12.2501 31.2711 11.2761 30.5756 10.1811 30.1352C9.08606 29.6948 7.9017 29.5223 6.72655 29.632C5.55139 29.7417 4.41942 30.1304 3.4248 30.7658C2.43019 31.4013 1.6017 32.265 1.00826 33.2852C0.414815 34.3055 0.0735818 35.4526 0.0129485 36.6313C-0.0476847 37.8101 0.174035 38.9862 0.65966 40.0619C1.14529 41.1376 1.88078 42.0819 2.80494 42.816C3.7291 43.5501 4.81521 44.0529 5.97291 44.2826V89.0805C4.818 89.3093 3.73418 89.8098 2.81117 90.5407C1.88816 91.2716 1.15251 92.2119 0.665104 93.2836C0.177698 94.3553 -0.0474417 95.5277 0.00832036 96.7038C0.0640825 97.8798 0.399143 99.0256 0.985766 100.046C1.57239 101.067 2.39371 101.934 3.38173 102.574C4.36975 103.214 5.49607 103.61 6.66745 103.728C7.83883 103.847 9.02158 103.685 10.1178 103.255C11.214 102.826 12.1922 102.141 12.9713 101.259L51.6479 123.588C51.3395 124.69 51.2903 125.848 51.5041 126.972C51.7179 128.096 52.189 129.155 52.8804 130.067C53.5718 130.978 54.4649 131.717 55.4896 132.226C56.5143 132.735 57.6428 133 58.7869 133C59.931 133 61.0596 132.735 62.0843 132.226C63.109 131.717 64.002 130.978 64.6935 130.067C65.3849 129.155 65.8559 128.096 66.0698 126.972C66.2836 125.848 66.2344 124.69 65.926 123.588L104.508 101.313C105.29 102.181 106.265 102.853 107.356 103.272C108.446 103.692 109.62 103.848 110.782 103.728C111.944 103.608 113.061 103.215 114.042 102.581C115.023 101.947 115.841 101.09 116.428 100.08C117.015 99.07 117.355 97.9357 117.421 96.7693C117.486 95.603 117.275 94.4377 116.805 93.3684C116.334 92.2992 115.618 91.3562 114.714 90.6164C113.81 89.8766 112.743 89.361 111.602 89.1115ZM104.475 91.4306L86.3588 80.951L107.76 44.0745C108.073 44.173 108.392 44.2512 108.714 44.3087V89.0557C107.074 89.3477 105.581 90.1845 104.475 91.4306ZM56.3928 118.568L35.208 81.9805L57.3443 69.2089V118.307C57.0216 118.373 56.7038 118.46 56.3928 118.568ZM8.8595 89.0817V44.2826C9.20948 44.2136 9.55397 44.1192 9.89025 44.0002L31.2659 80.9188L12.9912 91.4703C11.9158 90.2394 10.4628 89.3994 8.8595 89.0817ZM57.3443 38.481V64.1679L14.4481 39.3569C14.5469 39.0629 14.6268 38.7629 14.6872 38.4587L57.3443 38.481ZM12.373 42.5247C12.6021 42.3183 12.8181 42.0977 13.0197 41.8643L55.9357 66.689L33.7597 79.4817L12.373 42.5247ZM102.757 38.5057C102.827 38.8467 102.921 39.1824 103.038 39.5105L60.2309 64.21V38.4834L102.757 38.5057ZM60.2309 118.313V69.173L82.4105 82.0077L61.1885 118.571C60.8755 118.463 60.5555 118.377 60.2309 118.313ZM61.7064 66.6915L104.521 41.9919C104.743 42.2371 104.982 42.4672 105.234 42.6808L83.86 79.5064L61.7064 66.6915ZM103.006 34.6045C102.891 34.9362 102.801 35.2757 102.736 35.6204L60.2309 35.5981V14.6784C61.8331 14.3602 63.2852 13.5213 64.3613 12.2923L103.006 34.6045ZM53.2126 12.2923C54.2893 13.5214 55.7417 14.3606 57.3443 14.6796V35.5944L14.6884 35.5721C14.6277 35.2673 14.5482 34.9665 14.4506 34.6714L53.2126 12.2923ZM14.4258 98.766C14.9609 97.2128 14.9644 95.5258 14.4357 93.9703L32.7092 83.4225L53.894 120.017C53.5504 120.317 53.2352 120.649 52.9524 121.008L14.4258 98.766ZM64.619 121.01C64.3383 120.652 64.0256 120.32 63.6848 120.019L84.9093 83.4473L103.014 93.9196C102.46 95.5115 102.466 97.2447 103.03 98.8329L64.619 121.01Z" fill="white"/>
</svg>
